<svg width="100" height="41" viewBox="0 0 100 41" fill="none" xmlns="http://www.w3.org/2000/svg">
<path d="M20.3741 0.5C15.2032 0.499546 10.233 2.50207 6.50661 6.08736C2.78022 9.67264 0.587264 14.562 0.387927 19.7294C0.18859 24.8968 1.99836 29.9405 5.43748 33.8023C8.8766 37.664 13.6777 40.0435 18.8333 40.4415C19.2698 40.4862 19.7086 40.5048 20.1472 40.4971C20.2238 40.4971 20.2982 40.5 20.3741 40.5C25.6782 40.5 30.765 38.3929 34.5155 34.6421C38.266 30.8914 40.373 25.8043 40.373 20.5C40.373 15.1957 38.266 10.1086 34.5155 6.35786C30.765 2.60714 25.6782 0.5 20.3741 0.5ZM29.593 27.0122C29.7023 27.4293 29.7853 27.8528 29.8417 28.2803C29.8417 28.2829 29.8434 28.2854 29.8438 28.2881C29.9397 28.9121 29.959 29.5456 29.9012 30.1743H29.8992C29.8659 30.7486 29.7798 31.3185 29.6419 31.877C29.1041 34.098 27.8186 36.0663 26.0012 37.4515C24.1839 38.8367 21.9453 39.5545 19.6613 39.4843C18.7361 39.4604 17.8194 39.3006 16.9406 39.01C16.9245 39.0038 16.9089 38.9966 16.8937 38.9886C17.867 39.0396 18.8412 38.9082 19.7662 38.6012C20.5603 38.338 21.3099 37.9558 21.9893 37.4676C22.5154 37.0925 22.9965 36.6578 23.423 36.1724C24.0386 35.4773 24.4982 34.6584 24.7709 33.7708C24.9993 33.0461 25.106 32.2885 25.0866 31.5288C25.0623 30.6867 24.8618 29.8589 24.4979 29.0991C24.1622 28.3913 23.6964 27.753 23.1247 27.2175C22.4449 26.5383 21.6188 26.0236 20.7095 25.7128C19.8816 25.4529 18.9972 25.4326 18.1582 25.6541C17.4031 25.8466 16.6984 26.1998 16.0921 26.6895C15.3034 27.2827 14.704 28.0922 14.3667 29.0197C14.1681 29.6132 14.1129 30.2454 14.2057 30.8644C14.2866 31.4705 14.4953 32.0527 14.8178 32.5722C15.1723 33.1476 15.6666 33.624 16.2547 33.9569C16.8428 34.2898 17.5056 34.4686 18.1814 34.4764C18.9696 34.486 19.7351 34.2125 20.3387 33.7055C20.9423 33.1985 21.3439 32.4917 21.4705 31.7136C21.5467 31.3148 21.5302 30.9038 21.4223 30.5124C21.3145 30.121 21.1181 29.7596 20.8484 29.4561C20.7744 29.3685 20.6691 29.3135 20.5551 29.3027C20.441 29.292 20.3272 29.3265 20.2383 29.3987C20.1911 29.4329 20.1516 29.4765 20.1222 29.5268C20.0927 29.5771 20.0741 29.6329 20.0674 29.6908C20.0606 29.7487 20.066 29.8073 20.0831 29.863C20.1002 29.9187 20.1287 29.9702 20.1667 30.0143C20.9773 30.8288 20.6951 32.4376 19.5546 33.1954C18.8601 33.6566 18.1075 33.6867 17.3308 33.459C15.5012 32.9233 14.6648 30.8762 15.2167 29.2646C15.4299 28.6852 15.7774 28.1645 16.2306 27.7453C16.8857 27.0813 17.7264 26.631 18.6422 26.4538C19.5393 26.2793 20.4692 26.4423 21.2536 26.9114C22.0883 27.3802 22.8012 28.0388 23.3346 28.8339C23.9364 29.7298 24.2403 30.7927 24.2029 31.8713C24.1805 32.8054 23.938 33.721 23.4951 34.5438C23.1449 35.178 22.6859 35.7458 22.1391 36.221C21.4235 36.8685 20.5882 37.3699 19.6803 37.6968C18.448 38.1577 17.1041 38.2294 15.8298 37.9023C14.874 37.6399 13.9795 37.1908 13.198 36.5809C12.2416 35.8533 11.4833 34.8971 10.9927 33.8001C10.4413 32.6397 10.1204 31.3833 10.048 30.1006C9.99163 29.1365 10.0787 28.1694 10.3063 27.2309C10.3403 27.0924 10.3807 26.9565 10.4211 26.8203C12.171 27.1535 13.9759 27.0533 15.6782 26.5287C17.3806 26.004 18.9287 25.0708 20.1876 23.8103C20.2519 23.7459 20.3123 23.6791 20.3747 23.6135C21.3941 24.6903 22.6226 25.5478 23.9849 26.1334C25.3472 26.7189 26.8146 27.0203 28.2974 27.0189C28.7239 27.0186 29.1499 26.9935 29.5734 26.9437C29.5792 26.9657 29.5876 26.9887 29.593 27.0122ZM2.54499 15.7844C2.56895 14.8591 2.72874 13.9424 3.01924 13.0635C3.02551 13.0475 3.03266 13.0319 3.04066 13.0167C2.98968 13.99 3.12107 14.9642 3.42806 15.8893C3.69117 16.6835 4.07335 17.4332 4.56154 18.1128C4.93673 18.6389 5.37138 19.1199 5.85688 19.5463C6.55184 20.162 7.37064 20.6216 8.25815 20.8943C8.98287 21.1227 9.74045 21.2294 10.5001 21.21C11.3422 21.1857 12.1698 20.9852 12.9296 20.6213C13.6375 20.286 14.2759 19.8205 14.8115 19.249C15.4908 18.5688 16.0054 17.7423 16.3161 16.8327C16.5761 16.0048 16.5965 15.1202 16.3749 14.2813C16.1823 13.5261 15.8292 12.8213 15.3395 12.2151C14.7464 11.4263 13.9369 10.8269 13.0094 10.4896C12.4159 10.291 11.7838 10.2358 11.1649 10.3285C10.5587 10.4095 9.97662 10.6181 9.45706 10.9407C8.88169 11.2952 8.40538 11.7895 8.07249 12.3777C7.73959 12.9658 7.56095 13.6286 7.55319 14.3044C7.5433 15.0927 7.81673 15.8583 8.32371 16.462C8.8307 17.0657 9.53755 17.4673 10.3156 17.5937C10.7143 17.67 11.1252 17.6536 11.5166 17.5459C11.908 17.4381 12.2694 17.2419 12.5729 16.9723C12.6605 16.8985 12.7156 16.7932 12.7263 16.6791C12.7371 16.565 12.7026 16.4513 12.6303 16.3624C12.5961 16.3152 12.5524 16.2757 12.5022 16.2462C12.4519 16.2168 12.3961 16.1981 12.3382 16.1913C12.2803 16.1846 12.2217 16.1899 12.166 16.207C12.1103 16.2241 12.0588 16.2526 12.0146 16.2907C11.2002 17.1013 9.59155 16.8191 8.83379 15.6784C8.37312 14.9826 8.34309 14.2302 8.57074 13.4534C9.1064 11.6237 11.1524 10.7873 12.7649 11.3394C13.3443 11.5526 13.8649 11.9001 14.2841 12.3534C14.9481 13.0085 15.3983 13.8493 15.5756 14.7651C15.7501 15.6622 15.5872 16.5922 15.118 17.3766C14.6491 18.2115 13.9904 18.9244 13.1952 19.4577C12.2994 20.0596 11.2365 20.3634 10.158 20.3261C9.22394 20.3037 8.30835 20.0611 7.48566 19.6182C6.85123 19.2678 6.28344 18.8085 5.80828 18.2612C5.16072 17.5456 4.6594 16.7103 4.33255 15.8022C3.87198 14.5702 3.8004 13.2266 4.12747 11.9526C4.38974 10.9966 4.83877 10.1021 5.44863 9.32063C6.1763 8.36427 7.13249 7.60598 8.22945 7.11533C9.38972 6.56395 10.646 6.24311 11.9285 6.17061C12.8926 6.11423 13.8596 6.20127 14.7981 6.42889C15.6 6.62508 16.3752 6.91735 17.107 7.29938H17.1087C17.1573 7.3254 17.2044 7.35084 17.2497 7.3759C17.3023 7.40441 17.3555 7.43196 17.4079 7.46161C17.4161 7.4664 17.4204 7.4708 17.4271 7.47539C17.8085 7.68237 18.1704 7.92345 18.5083 8.19569C18.8035 8.4224 19.0861 8.6651 19.3548 8.92269C19.4826 9.05049 19.6035 9.17944 19.7231 9.30877C18.6715 10.6388 17.9437 12.1951 17.597 13.8548C17.2503 15.5145 17.2943 17.2321 17.7255 18.8719C15.9345 19.2452 14.2658 20.0621 12.8725 21.2478C11.4791 22.4334 10.4056 23.9498 9.75033 25.6581C7.6224 25.048 5.75858 23.7458 4.45362 21.9576C3.14866 20.1694 2.47705 17.9972 2.54499 15.7844ZM22.1106 13.6063C22.2074 13.9743 22.2817 14.3479 22.3331 14.7249C22.3614 14.8931 22.3846 15.0615 22.3978 15.2294C22.449 15.8957 22.434 16.5654 22.353 17.2287C22.3613 17.2515 22.3632 17.2762 22.3585 17.3C22.2921 17.8206 22.1857 18.3353 22.0402 18.8396C20.9308 18.6265 19.7951 18.5857 18.6732 18.7187C18.6522 18.6381 18.6417 18.5901 18.6417 18.5901C18.2724 17.1409 18.2296 15.6277 18.5164 14.16C18.7273 13.0768 19.1186 12.0367 19.6737 11.083C19.8812 10.7283 20.11 10.3865 20.3588 10.0595C21.1778 11.1103 21.7739 12.3172 22.1106 13.6063ZM21.6155 20.0334C21.6106 20.0444 21.6049 20.055 21.5985 20.0651C21.4463 20.4368 21.2646 20.7955 21.055 21.138C20.8466 21.4858 20.618 21.821 20.3705 22.1421C19.8175 21.4149 19.3653 20.6164 19.0264 19.768C19.0221 19.7568 19.0186 19.7453 19.016 19.7336C19.0034 19.7026 18.9933 19.6747 18.9814 19.6446C19.0231 19.6402 19.0648 19.6347 19.1065 19.6314C19.7728 19.5802 20.4424 19.5952 21.1057 19.6762C21.1284 19.6679 21.1531 19.6659 21.1768 19.6706C21.3622 19.6942 21.5457 19.7242 21.7284 19.7575C21.6918 19.8491 21.6547 19.9414 21.6155 20.0334ZM22.6704 19.976C23.0926 20.0949 23.5065 20.2412 23.9096 20.4141C23.9206 20.419 23.9312 20.4247 23.9414 20.4311C24.313 20.5833 24.6717 20.7651 25.0141 20.9748C26.3001 21.7385 27.4005 22.7783 28.2356 24.0191C28.6489 24.6315 28.9909 25.2891 29.2549 25.9791C28.9389 26.0105 28.6517 26.0275 28.4797 26.0267C26.635 26.0606 24.8162 25.5889 23.2204 24.6628C22.8917 24.4711 22.575 24.2595 22.2721 24.0292C22.1332 23.9303 21.9977 23.8278 21.8703 23.7181C21.5673 23.4577 21.2803 23.1792 21.011 22.884C21.7112 22.0063 22.271 21.0253 22.6704 19.976ZM19.7405 22.8859C19.2208 23.4401 18.6406 23.9342 18.0107 24.359C17.0957 24.9761 16.0837 25.4352 15.0168 25.7174C14.5998 25.8267 14.1763 25.9098 13.7488 25.9661C13.7461 25.9661 13.7437 25.9678 13.741 25.9684C13.117 26.0643 12.4837 26.0836 11.8551 26.0258V26.0241C11.4806 26.0019 11.1079 25.9572 10.7388 25.8901C10.8681 25.5604 11.0144 25.2377 11.1773 24.9232V24.9217C11.2033 24.8729 11.2287 24.826 11.2538 24.7805C11.2825 24.7279 11.3101 24.6747 11.3397 24.6225C11.3443 24.6141 11.3489 24.6099 11.3535 24.6033C11.5604 24.2219 11.8015 23.86 12.0737 23.522C12.3001 23.2269 12.5424 22.9443 12.7996 22.6755C14.0801 21.347 15.6998 20.3942 17.4831 19.9205C17.6585 19.874 17.8351 19.834 18.0125 19.7983C18.4166 20.9144 19.0003 21.957 19.7405 22.8849V22.8859ZM27.6864 21.8428C26.3773 20.5306 24.7548 19.5746 22.9726 19.0653C23.4466 17.3941 23.5155 15.634 23.1736 13.9308C22.8316 12.2276 22.0888 10.6305 21.0066 9.27165C21.2222 9.04448 21.4509 8.83004 21.6915 8.62941L21.6928 8.63055C22.1226 8.24805 22.5866 7.90587 23.079 7.60835C25.0297 6.4184 27.3304 5.93575 29.5949 6.2414C31.8593 6.54705 33.9497 7.6224 35.5152 9.28696C36.1522 9.95824 36.6872 10.7194 37.1031 11.5462C37.1099 11.562 37.1158 11.5782 37.1208 11.5946C36.4691 10.8699 35.6876 10.2735 34.8166 9.83623C34.069 9.46055 33.2687 9.2007 32.443 9.06561C31.8058 8.95886 31.1583 8.92599 30.5135 8.96765C29.5868 9.02381 28.6828 9.27784 27.8624 9.71264C27.1884 10.0635 26.5773 10.5238 26.054 11.0748C25.4755 11.6874 25.0319 12.4146 24.752 13.2093C24.4888 13.9471 24.3668 14.7279 24.3925 15.5109C24.393 16.4718 24.6132 17.42 25.0362 18.2828C25.4379 19.052 26.049 19.6919 26.7989 20.1285C27.4691 20.5265 28.2172 20.7752 28.9923 20.8576C29.9693 20.9959 30.9655 20.8473 31.8597 20.43C32.4199 20.1508 32.9059 19.7429 33.2781 19.2396C33.6493 18.7535 33.9132 18.1941 34.0523 17.5985C34.2086 16.941 34.1959 16.2547 34.0154 15.6034C33.835 14.9521 33.4927 14.3571 33.0204 13.8738C32.47 13.3093 31.7353 12.9612 30.9499 12.8929C30.1645 12.8245 29.3807 13.0404 28.7411 13.5013C28.4053 13.7294 28.1264 14.0317 27.9259 14.3847C27.7254 14.7378 27.6087 15.1322 27.5848 15.5374C27.5751 15.6516 27.6105 15.7651 27.6835 15.8534C27.7566 15.9417 27.8613 15.9979 27.9753 16.0098C28.0328 16.019 28.0917 16.0161 28.148 16.0014C28.2044 15.9867 28.2571 15.9604 28.3028 15.9242C28.3485 15.8881 28.3862 15.8428 28.4135 15.7913C28.4408 15.7398 28.4571 15.6832 28.4614 15.6251C28.4639 14.476 29.8005 13.5378 31.1437 13.8089C31.9609 13.9738 32.5142 14.485 32.9025 15.1952C33.817 16.8682 32.962 18.9067 31.4316 19.6559C30.871 19.9148 30.257 20.0371 29.64 20.0127C28.7072 20.0191 27.7943 19.743 27.0214 19.2207C26.2637 18.7097 25.7214 17.9369 25.4986 17.0506C25.24 16.1285 25.2018 15.1586 25.3871 14.2191C25.595 13.1601 26.1317 12.1936 26.9206 11.4572C27.5974 10.8127 28.4167 10.337 29.3119 10.0687C30.008 9.86785 30.734 9.79098 31.4567 9.84159C32.4205 9.88974 33.3656 10.1259 34.2388 10.5368C35.4358 11.0825 36.4365 11.9822 37.1059 13.1146C37.5963 13.9761 37.9112 14.9261 38.0326 15.9099C38.1943 17.1007 38.0544 18.313 37.6259 19.4357C37.1952 20.6461 36.5337 21.7614 35.678 22.7197C35.036 23.4417 34.2903 24.0645 33.4654 24.5676C32.7597 24.9959 32.0049 25.3373 31.2173 25.5846H31.2158C31.163 25.6007 31.1123 25.6154 31.0618 25.6301C31.0044 25.6472 30.947 25.6652 30.8896 25.6812C30.8803 25.6839 30.8741 25.6837 30.8657 25.6854C30.617 25.7534 30.4087 25.8018 30.2312 25.8385C29.6865 24.3356 28.8177 22.9711 27.6864 21.8419V21.8428ZM32.9314 6.19778C32.2489 5.87522 31.5348 5.62396 30.8007 5.44801C30.7498 5.43615 30.6991 5.4241 30.6476 5.41281C30.5466 5.39061 30.4452 5.36989 30.3433 5.35063C30.2859 5.33973 30.2273 5.32959 30.1694 5.31964C30.059 5.3005 29.9486 5.28137 29.8373 5.26664C29.8001 5.26148 29.7626 5.25727 29.7253 5.25248C29.5547 5.23055 29.3845 5.21231 29.2148 5.19777C29.1336 5.19107 29.0525 5.18418 28.9708 5.17864C28.9124 5.17481 28.8542 5.17143 28.7962 5.1685C28.6305 5.16104 28.4641 5.15587 28.2965 5.15587C26.8152 5.15448 25.3492 5.45514 23.988 6.03947C22.6269 6.62381 21.3992 7.47955 20.3799 8.55441C20.3156 8.48668 20.2532 8.41781 20.1868 8.35123C18.7815 6.94136 17.0163 5.94418 15.0834 5.46829C15.0112 5.4505 14.9387 5.43577 14.8664 5.4195C14.6909 5.38009 14.5149 5.34508 14.3384 5.31447C14.2045 5.29151 14.0706 5.26875 13.9367 5.25095C13.8766 5.24292 13.8165 5.23661 13.7567 5.22934C13.5673 5.20753 13.3777 5.1882 13.187 5.17653H13.1766C12.9496 5.16276 12.7215 5.156 12.4923 5.15625C11.6942 5.15552 10.8984 5.2416 10.119 5.413C9.31851 5.59069 8.54078 5.85865 7.80074 6.21174C11.2699 3.15043 15.7367 1.45996 20.3633 1.45735C24.99 1.45474 29.4586 3.14019 32.9312 6.19759L32.9314 6.19778ZM1.33173 20.5C1.33169 19.4319 1.42128 18.3656 1.59956 17.3125C1.68182 18.0408 1.83692 18.759 2.06252 19.4564C2.06252 19.4546 2.06252 19.4535 2.06405 19.4518C2.33509 20.2863 2.70442 21.0856 3.16425 21.8329C3.1918 21.8773 3.21915 21.9217 3.24746 21.9659C3.3032 22.0531 3.36059 22.1395 3.41964 22.2251C3.45274 22.2737 3.4866 22.3219 3.52065 22.3699C3.58512 22.4614 3.65016 22.5524 3.71789 22.6422C3.74046 22.6722 3.76399 22.7015 3.78695 22.7313C3.89217 22.8678 3.99968 23.0011 4.10949 23.1312C4.1621 23.1933 4.21452 23.2555 4.26885 23.3167C4.30711 23.3606 4.34588 23.4042 4.38516 23.4474C4.49707 23.5699 4.61109 23.6912 4.72951 23.8098C6.03804 25.1217 7.66 26.0776 9.44157 26.5867C9.4079 26.7059 9.37601 26.8255 9.34591 26.9456C9.32831 27.0178 9.31358 27.0903 9.29732 27.1628C9.25791 27.338 9.22284 27.514 9.1921 27.6906C9.16934 27.8245 9.14657 27.9585 9.12878 28.0924C9.12075 28.1523 9.11424 28.2123 9.10716 28.2722C9.08535 28.4616 9.06603 28.6512 9.05417 28.842V28.8523C9.0404 29.0794 9.0337 29.3076 9.03409 29.5366C9.0331 30.3347 9.11892 31.1306 9.29005 31.9101C9.54296 33.0534 9.97895 34.1483 10.5812 35.1525C10.8452 35.5941 11.1405 36.016 11.465 36.4152C11.4929 36.4495 11.5176 36.4866 11.5438 36.5222L11.5322 36.5325C11.7504 36.7961 11.9815 37.0529 12.2285 37.2999C12.5156 37.5873 12.8183 37.8587 13.1353 38.1128C9.64601 36.6744 6.66191 34.2331 4.56074 31.0978C2.45957 27.9625 1.33581 24.2743 1.33173 20.5ZM25.9537 38.7087C26.0031 38.6762 26.0528 38.6442 26.1018 38.6108C26.1508 38.5773 26.1975 38.5438 26.2466 38.5097C26.3381 38.4453 26.4291 38.3802 26.5189 38.3125C26.5487 38.2899 26.5782 38.2664 26.608 38.2434C26.7445 38.1385 26.8778 38.0309 27.0078 37.9209C27.07 37.8683 27.1322 37.8158 27.1934 37.7617C27.2372 37.7234 27.2807 37.6847 27.3241 37.6454C27.4465 37.5333 27.5678 37.4194 27.6864 37.301C29.0377 35.9503 30.0111 34.2688 30.5095 32.4244C31.0079 30.5799 31.0138 28.637 30.5267 26.7895C31.7335 26.5392 32.8889 26.0853 33.9434 25.4474C34.007 25.4092 34.0688 25.368 34.1315 25.3282C34.2833 25.2322 34.4324 25.1325 34.579 25.0292C34.6897 24.951 34.8003 24.8725 34.9078 24.7901C34.956 24.7535 35.0035 24.7155 35.0503 24.6782C35.1998 24.5597 35.3474 24.4392 35.4903 24.3127L35.4984 24.3059C35.6686 24.1551 35.8344 23.9986 35.9958 23.8364C36.5607 23.2725 37.0625 22.6489 37.4926 21.9766C38.1223 20.9892 38.5884 19.9067 38.873 18.7707C38.998 18.2752 39.0875 17.7715 39.1408 17.2633C39.9277 21.8304 39.0227 26.5278 36.5954 30.4756C34.1681 34.4234 30.385 37.3509 25.9545 38.7099L25.9537 38.7087Z" fill="#5B1F7B"/>
<path d="M58.3549 31C62.671 31 65.6864 28.7438 65.6864 25.0413C65.6864 21.0207 62.2276 19.9793 58.7983 18.9091C55.783 17.9835 54.63 17.3182 54.63 15.7562C54.63 14.2231 55.9012 13.2397 57.8819 13.2397C60.1878 13.2397 61.4885 14.4545 62.2276 16.0744L65.0951 14.4545C63.7944 11.7645 61.2816 10 57.8819 10C54.3935 10 51.2304 12.1116 51.2304 15.843C51.2304 19.6612 54.364 20.8182 57.5863 21.7727C60.6608 22.6983 62.2867 23.3058 62.2867 25.0992C62.2867 26.5744 61.1338 27.7603 58.4436 27.7603C55.6352 27.7603 54.0388 26.4008 53.2997 24.3471L50.373 26.0248C51.4669 29.0331 54.2753 31 58.3549 31Z" fill="#14142B"/>
<path d="M72.4522 27.4421V10.376H69.0525V30.624H80.8775V27.4421H72.4522Z" fill="#14142B"/>
<path d="M87.2087 27.4421V21.9752H95.4862V18.8223H87.2087V13.5579H96.2252V10.376H83.809V30.624H96.373V27.4421H87.2087Z" fill="#14142B"/>
</svg>
